<svg style="display: block;" id="Layer_1" data-name="Layer 1" xmlns="http://www.w3.org/2000/svg" viewBox="240 230 600 200"><defs><style>.cls-1{fill:#f06;}</style></defs><path d="M321.63,251c31.07,0,54.27,16.77,63,45.69l-28.38,4.4c-3.52-11.52-14.71-24.31-34.59-24.31-26.51,0-43.91,22.63-43.91,50.72,0,28.29,17.6,50.72,43.7,50.72,16.78,0,29.41-9.64,35.21-26l26.52,6.92C375.28,387.23,352.49,404,322.46,404c-41.84,0-72.71-29.76-72.71-76.29C249.75,280.76,279.79,251,321.63,251Z"/><path d="M423.67,254.14V400.86h-26.1V254.14Z"/><path d="M489.26,297.74c28.38,0,52.2,19.49,52.2,53.23,0,33.33-23.82,53-52.2,53s-52.19-19.49-52.19-53C437.07,317.23,460.89,297.74,489.26,297.74Zm0,83.2c15.33,0,25.89-11.94,25.89-30,0-18.23-10.56-30-25.89-30s-26.1,11.74-26.1,30C463.16,369,473.94,380.94,489.26,380.94Z"/><path d="M619.07,400.86V388.49h-1c-5.39,8.8-16.36,15.51-30,15.51-21.34,0-34.6-14.46-34.6-39V300.88h26.1V360c0,13.83,6.22,20.95,16.57,20.95,11.6,0,20.72-9,20.72-22.63V300.88h26.1v100Z"/><path d="M703.75,297.74c14.29,0,24.64,6.91,29.2,15.51V254.14h26.1V400.86H735V386.6h-.62C728,399.18,714.93,404,703.12,404c-26.3,0-46-21.38-46-53C657.14,319.12,677.65,297.74,703.75,297.74Zm5,83.2c15.74,0,25.06-12.57,25.06-30,0-17.6-9.32-30-25.06-30s-25.27,12.79-25.27,30S693.18,380.94,708.72,380.94Z"/><rect class="cls-1" x="774.83" y="374.76" width="26.1" height="26.1"/></svg>