<svg id="Layer_1" data-name="Layer 1" xmlns="http://www.w3.org/2000/svg" viewBox="240 230 600 200"><defs><style>.cls-1{fill:#f06;}</style></defs><rect class="cls-1" x="678.85" y="374.76" width="26.1" height="26.1"/><path d="M295,400.86h-40V254.14h44.11c49.51,0,78.51,29.56,78.51,73.36C377.68,381.78,340.39,400.86,295,400.86Zm5.18-121.15H282.4V375.5h18c31.27,0,48.88-18.87,48.88-48C349.3,298.58,331.49,279.71,300.21,279.71Z"/><path d="M383.06,365.64,409.57,360c2.49,12.57,14.5,19.91,28.17,19.91,14.29,0,23.61-7.76,23.61-19.29,0-32.48-72.7-9.22-72.7-65.6,0-26,20.51-44,49.5-44,27.55,0,46.61,15.93,50.54,39.61l-26.51,4.82c-2.28-12.36-11.18-20.12-24.85-20.12-12.43,0-20.92,6.29-20.92,17.4,0,31.65,72.7,8.59,72.7,64.76,0,27.87-20.92,46.53-52.4,46.53C410,404,387.41,389.54,383.06,365.64Z"/><path d="M636.24,400.86V289.57h-.83l-40,111.29H572.24l-40-111.29h-.83V400.86H504.09V254.14h42.26l37.9,104.38h.83l37.49-104.38h41V400.86Z"/></svg>