<svg id="Layer_1" data-name="Layer 1" xmlns="http://www.w3.org/2000/svg" viewBox="240 230 600 200"><defs><style>.cls-1{fill:#f06;}</style></defs><path d="M255.27,366.06l26.54-5.66c2.48,12.59,14.51,19.93,28.19,19.93,14.3,0,23.63-7.76,23.63-19.3,0-32.51-72.76-9.23-72.76-65.66,0-26,20.52-44.05,49.54-44.05,27.58,0,46.65,15.94,50.59,39.65l-26.54,4.82c-2.28-12.37-11.19-20.13-24.87-20.13-12.44,0-20.94,6.29-20.94,17.41,0,31.67,72.76,8.6,72.76,64.81,0,27.9-20.94,46.57-52.45,46.57C282.22,404.45,259.62,390,255.27,366.06Z"/><path d="M383.8,368.16V323.69h-17V301.25h17V269.7l26.12-.13v31.68h25.5v22.44h-25.5V364c0,13.42,5,17.62,14.72,17.62a21.26,21.26,0,0,0,9.13-1.89l2.69,21c-3.52,1.46-9.54,2.72-17,2.72C398.73,403.4,383.8,394.59,383.8,368.16Z"/><path d="M515.51,401.31V388.93h-1c-5.39,8.81-16.38,15.52-30.06,15.52-21.35,0-34.62-14.47-34.62-39V301.25h26.12V360.4c0,13.85,6.22,21,16.58,21,11.61,0,20.74-9,20.74-22.66V301.25h26.12V401.31Z"/><path d="M596.64,298.1c14.3,0,24.67,6.92,29.23,15.52V254.47H652V401.31h-24V387h-.62c-6.43,12.59-19.49,17.41-31.3,17.41-26.33,0-46-21.39-46-53.07C550,319.5,570.52,298.1,596.64,298.1Zm5,83.28c15.76,0,25.09-12.59,25.09-30,0-17.62-9.33-30-25.09-30s-25.29,12.8-25.29,30S586.07,381.38,601.61,381.38Z"/><path d="M671.2,401.31V301.25h26.12V401.31Z"/><path d="M763,298.1c28.4,0,52.24,19.51,52.24,53.28,0,33.35-23.84,53.07-52.24,53.07s-52.24-19.51-52.24-53.07C710.73,317.61,734.57,298.1,763,298.1Zm0,83.28c15.34,0,25.91-12,25.91-30,0-18.25-10.57-30-25.91-30s-26.12,11.75-26.12,30C736.85,369.42,747.63,381.38,763,381.38Z"/><rect class="cls-1" x="820.79" y="375.18" width="26.12" height="26.12"/><rect x="671.2" y="254.47" width="26.12" height="26.12"/></svg>