<svg id="Layer_1" data-name="Layer 1" xmlns="http://www.w3.org/2000/svg" viewBox="240 230 950 200"><defs><style>.cls-1{fill:#f06;}</style></defs><path d="M351.74,258.78h-70v34.88h52.85v25.28H281.76v35.51h70v25.27H254.51V233.5h97.23Z"/><path d="M431.77,379.72v-58.9c0-13.79-6-20.68-16.51-20.68-11.36,0-20.65,9-20.65,22.35v57.23h-26V280.08h24.16v12.54h.41c5.57-9,16.51-15.67,30.14-15.67,21.26,0,34.47,14.41,34.47,39.06v63.71Z"/><path d="M482.76,346.72V302.43H465.84V280.08h16.92V248.67l26-.13v31.54h25.39v22.35H508.78v40.11c0,13.37,5,17.55,14.65,17.55a21.25,21.25,0,0,0,9.09-1.88l2.68,20.88c-3.51,1.47-9.5,2.72-16.93,2.72C497.63,381.81,482.76,373,482.76,346.72Z"/><path d="M593.08,382.86c-30.56,0-52.23-22.15-52.23-52.65,0-30.28,20.85-53.26,49.75-53.26,27.87,0,49.34,19.84,49.54,54.1v6.27H567.27c2.48,14.41,12.39,24,26,24,9.7,0,17.14-4.6,21.26-12.53l21.68,6.26C628,373.46,613.31,382.86,593.08,382.86Zm-25.6-63.51H613.1c-.83-15-10.53-22.14-22.09-22.14C578.83,297.21,570.16,304.52,567.48,319.35Z"/><path d="M677.51,280.08v16.09h.41c5-11.28,14.86-17.76,26.22-17.76a16.08,16.08,0,0,1,7.43,1.46v25.28a19.34,19.34,0,0,0-7.22-1.26c-14.25,0-25,7.73-25,31.13v44.7h-26V280.08Z"/><path d="M779.15,382.86c-14.24,0-24.57-6.9-29.11-15.46v54.1H724V280.08h24V294.5h.41C755,282,768,277,779.77,277,806,277,825.6,298.25,825.6,330S805.16,382.86,779.15,382.86Zm-5-82.72C758.5,300.14,749,312.46,749,330c0,17.33,9.49,29.87,25.18,29.87s25.19-12.95,25.19-29.87C799.38,312.88,789.68,300.14,774.19,300.14Z"/><path d="M863.38,280.08v16.09h.41c5-11.28,14.87-17.76,26.22-17.76a16.08,16.08,0,0,1,7.43,1.46v25.28a19.34,19.34,0,0,0-7.22-1.26c-14.25,0-25,7.73-25,31.13v44.7h-26V280.08Z"/><path d="M949.54,355.28l23.94-4.59c2.07,7.72,9.71,12.74,18.79,12.74,8.88,0,14-4.81,14-12.12,0-19.42-52.65-2.29-52.65-42.61,0-19,15.28-31.75,37.78-31.75,20.23,0,35.92,10.23,40,25.48l-24.15,5.23c-1.24-6.48-7.43-10.87-15.28-10.87-8,0-12.59,4.39-12.59,10,0,19.64,52.64,2.51,52.64,42.61,0,20.27-16.31,33.43-40.46,33.43C970.39,382.86,954.9,372.83,949.54,355.28Z"/><path d="M1091.78,382.86c-30.56,0-52.23-22.15-52.23-52.65,0-30.28,20.85-53.26,49.75-53.26,27.87,0,49.34,19.84,49.54,54.1v6.27H1066c2.48,14.41,12.39,24,26,24,9.7,0,17.14-4.6,21.26-12.53l21.68,6.26C1126.66,373.46,1112,382.86,1091.78,382.86Zm-25.6-63.51h45.62c-.83-15-10.53-22.14-22.09-22.14C1077.53,297.21,1068.86,304.52,1066.18,319.35Z"/><path d="M912.24,379.72V280.08h26v99.64Z"/><rect x="912.24" y="233.5" width="26.01" height="26.01"/><rect class="cls-1" x="1144.41" y="353.71" width="26.01" height="26.01"/></svg>